<?xml version="1.0" encoding="iso-8859-1"?>
<!-- Generator: Adobe Illustrator 19.0.0, SVG Export Plug-In . SVG Version: 6.00 Build 0)  -->
<svg version="1.1" id="Layer_1" xmlns="http://www.w3.org/2000/svg" xmlns:xlink="http://www.w3.org/1999/xlink" x="0px" y="0px"
	 viewBox="0 0 490 490" style="enable-background:new 0 0 490 490;" xml:space="preserve">
<g>
	<g id="XMLID_30_">
		<g>
			<path style="fill:#E7ECED;" d="M480,80v390c0,5.498-4.502,10-10,10H20c-5.498,0-10-4.502-10-10V80H480z"/>
			<path style="fill:#F4661E;" d="M480,20v60H10V20c0-5.498,4.502-10,10-10h450C475.498,10,480,14.502,480,20z"/>
			<circle style="fill:#AFB6BB;" cx="100" cy="160" r="40"/>
			<circle style="fill:#AFB6BB;" cx="100" cy="280" r="40"/>
			<circle style="fill:#AFB6BB;" cx="100" cy="400" r="40"/>
		</g>
		<g>
			<path style="fill:#231F20;" d="M470,0H20C8.972,0,0,8.972,0,20v450c0,11.028,8.972,20,20,20h450c11.028,0,20-8.972,20-20V20
				C490,8.972,481.028,0,470,0z M470,20v50H20V20H470z M20,470V90h450l0.002,380H20z"/>
			<rect x="40" y="35" style="fill:#231F20;" width="35" height="20"/>
			<rect x="90" y="35" style="fill:#231F20;" width="35" height="20"/>
			<rect x="415" y="35" style="fill:#231F20;" width="35" height="20"/>
			<path style="fill:#231F20;" d="M100,210c27.57,0,50-22.43,50-50h-20c0,16.542-13.458,30-30,30s-30-13.458-30-30s13.458-30,30-30
				v-20c-27.57,0-50,22.43-50,50S72.43,210,100,210z"/>
			<path style="fill:#231F20;" d="M105,150.858l-7.929-7.929l-14.143,14.143l15,15C99.882,174.024,102.44,175,105,175
				s5.118-0.976,7.071-2.929l42.5-42.5l-14.143-14.143L105,150.858z"/>
			<rect x="175" y="140" style="fill:#231F20;" width="110" height="20"/>
			<rect x="175" y="180" style="fill:#231F20;" width="260" height="20"/>
			<rect x="385" y="140" style="fill:#231F20;" width="20" height="20"/>
			<rect x="415" y="140" style="fill:#231F20;" width="20" height="20"/>
			<path style="fill:#231F20;" d="M100,330c27.57,0,50-22.43,50-50h-20c0,16.542-13.458,30-30,30s-30-13.458-30-30s13.458-30,30-30
				v-20c-27.57,0-50,22.43-50,50S72.43,330,100,330z"/>
			<path style="fill:#231F20;" d="M105,270.858l-7.929-7.929l-14.143,14.143l15,15C99.882,294.024,102.44,295,105,295
				s5.118-0.976,7.071-2.929l42.5-42.5l-14.143-14.143L105,270.858z"/>
			<rect x="175" y="260" style="fill:#231F20;" width="110" height="20"/>
			<rect x="175" y="300" style="fill:#231F20;" width="260" height="20"/>
			<rect x="385" y="260" style="fill:#231F20;" width="20" height="20"/>
			<rect x="415" y="260" style="fill:#231F20;" width="20" height="20"/>
			<path style="fill:#231F20;" d="M100,430c-16.542,0-30-13.458-30-30s13.458-30,30-30v-20c-27.57,0-50,22.43-50,50s22.43,50,50,50
				s50-22.43,50-50h-20C130,416.542,116.542,430,100,430z"/>
			<path style="fill:#231F20;" d="M105,390.858l-7.929-7.929l-14.143,14.143l15,15C99.882,414.024,102.44,415,105,415
				s5.118-0.976,7.071-2.929l42.5-42.5l-14.143-14.143L105,390.858z"/>
			<rect x="175" y="380" style="fill:#231F20;" width="110" height="20"/>
			<rect x="175" y="420" style="fill:#231F20;" width="260" height="20"/>
			<rect x="385" y="380" style="fill:#231F20;" width="20" height="20"/>
			<rect x="415" y="380" style="fill:#231F20;" width="20" height="20"/>
		</g>
	</g>
</g>
<g>
</g>
<g>
</g>
<g>
</g>
<g>
</g>
<g>
</g>
<g>
</g>
<g>
</g>
<g>
</g>
<g>
</g>
<g>
</g>
<g>
</g>
<g>
</g>
<g>
</g>
<g>
</g>
<g>
</g>
</svg>
